Coordinates
version=1
nRows=26
nColumns=24
inDegrees=yes

Units are S.I. units (second, meters, Newtons, ...)
Angles are in degrees.

endheader
time	pelvis_tilt	pelvis_list	pelvis_rotation	pelvis_tx	pelvis_ty	pelvis_tz	hip_flexion_r	hip_adduction_r	hip_rotation_r	knee_angle_r	ankle_angle_r	subtalar_angle_r	mtp_angle_r	hip_flexion_l	hip_adduction_l	hip_rotation_l	knee_angle_l	ankle_angle_l	subtalar_angle_l	mtp_angle_l	lumbar_extension	lumbar_bending	lumbar_rotation
      0.01000000	     67.45402755	      1.46891230	     -3.83418222	      0.53165600	      0.96530833	     -0.29815893	      7.45754890	    -15.54354712	     -7.29546086	    -73.83267258	    -26.03842338	      0.00000000	      0.00000000	     15.86709534	     -2.39724986	     17.73491069	    -11.24592701	    -42.89659918	      0.00000000	      0.00000000	      0.00000000	      0.00000000	      0.00000000
      0.02000000	     67.46945109	      1.47181974	     -3.82619127	      0.53165422	      0.96534256	     -0.29815711	      7.41967863	    -15.54485361	     -7.30041550	    -73.81676592	    -25.95245614	      0.00000000	      0.00000000	     15.84783825	     -2.38971619	     17.75179186	    -11.24016630	    -42.89861966	      0.00000000	      0.00000000	      0.00000000	      0.00000000	      0.00000000
      0.03000000	     67.48357826	      1.47395129	     -3.81726344	      0.53164900	      0.96536163	     -0.29814988	      7.38113645	    -15.54766070	     -7.30731821	    -73.79981867	    -25.85707524	      0.00000000	      0.00000000	     15.82873751	     -2.38377617	     17.76920168	    -11.23376473	    -42.90047545	      0.00000000	      0.00000000	      0.00000000	      0.00000000	      0.00000000
      0.04000000	     67.49493375	      1.47494635	     -3.80872859	      0.53164461	      0.96536676	     -0.29814162	      7.34499400	    -15.55096701	     -7.31569714	    -73.78257139	    -25.75920451	      0.00000000	      0.00000000	     15.81110079	     -2.38022805	     17.78677581	    -11.22690833	    -42.90227614	      0.00000000	      0.00000000	      0.00000000	      0.00000000	      0.00000000
      0.05000000	     67.50172328	      1.47435027	     -3.80292876	      0.53164698	      0.96537035	     -0.29813310	      7.31604665	    -15.55274440	     -7.32391925	    -73.76628736	    -25.67261783	      0.00000000	      0.00000000	     15.79694191	     -2.37977718	     17.80400405	    -11.22001321	    -42.90427647	      0.00000000	      0.00000000	      0.00000000	      0.00000000	      0.00000000
      0.06000000	     67.50198756	      1.47171488	     -3.80284004	      0.53165977	      0.96538116	     -0.29811839	      7.29961898	    -15.55018500	     -7.32834857	    -73.75253256	    -25.61802297	      0.00000000	      0.00000000	     15.78882308	     -2.38270504	     17.82043260	    -11.21372177	    -42.90684852	      0.00000000	      0.00000000	      0.00000000	      0.00000000	      0.00000000
      0.07000000	     67.49397266	      1.46700862	     -3.81085437	      0.53167971	      0.96539002	     -0.29810048	      7.30026902	    -15.54034523	     -7.32295781	    -73.74274800	    -25.62047591	      0.00000000	      0.00000000	     15.78950468	     -2.38898600	     17.83580552	    -11.20882441	    -42.91032351	      0.00000000	      0.00000000	      0.00000000	      0.00000000	      0.00000000
      0.08000000	     67.47691417	      1.46053959	     -3.82674757	      0.53169608	      0.96537884	     -0.29809657	      7.32122326	    -15.52147097	     -7.29982641	    -73.73768062	    -25.70393540	      0.00000000	      0.00000000	     15.80115018	     -2.39879999	     17.84998430	    -11.20615812	    -42.91477681	      0.00000000	      0.00000000	      0.00000000	      0.00000000	      0.00000000
      0.09000000	     67.45161738	      1.45197132	     -3.84621460	      0.53169923	      0.96534048	     -0.29811059	      7.36425849	    -15.49468743	     -7.25096665	    -73.73693597	    -25.88390640	      0.00000000	      0.00000000	     15.82424242	     -2.41291192	     17.86269914	    -11.20648575	    -42.91990361	      0.00000000	      0.00000000	      0.00000000	      0.00000000	      0.00000000
      0.10000000	     67.42037773	      1.43981594	     -3.86235020	      0.53169244	      0.96529026	     -0.29810912	      7.42912140	    -15.46422773	     -7.17193925	    -73.73902953	    -26.16030753	      0.00000000	      0.00000000	     15.85706338	     -2.43217770	     17.87339457	    -11.21024385	    -42.92508982	      0.00000000	      0.00000000	      0.00000000	      0.00000000	      0.00000000
      0.11000000	     67.38611351	      1.42305387	     -3.87070491	      0.53169020	      0.96525305	     -0.29805603	      7.51202725	    -15.43477213	     -7.06642545	    -73.74206124	    -26.51339096	      0.00000000	      0.00000000	     15.89633327	     -2.45610506	     17.88136120	    -11.21715734	    -42.92965261	      0.00000000	      0.00000000	      0.00000000	      0.00000000	      0.00000000
      0.12000000	     67.35099446	      1.40375478	     -3.87384214	      0.53169767	      0.96522908	     -0.29797944	      7.60427466	    -15.40792355	     -6.94823578	    -73.74457320	    -26.90543961	      0.00000000	      0.00000000	     15.93833413	     -2.48188027	     17.88608990	    -11.22607148	    -42.93312265	      0.00000000	      0.00000000	      0.00000000	      0.00000000	      0.00000000
      0.13000000	     67.31626077	      1.38650403	     -3.87918893	      0.53170317	      0.96519296	     -0.29794504	      7.69354680	    -15.38237408	     -6.83678057	    -73.74554296	    -27.28916427	      0.00000000	      0.00000000	     15.97943838	     -2.50539156	     17.88765230	    -11.23533495	    -42.93543613	      0.00000000	      0.00000000	      0.00000000	      0.00000000	      0.00000000
      0.14000000	     67.28375889	      1.37437322	     -3.89138861	      0.53169836	      0.96514029	     -0.29795624	      7.76817051	    -15.35765664	     -6.74803963	    -73.74359272	    -27.61993908	      0.00000000	      0.00000000	     16.01599069	     -2.52361124	     17.88691498	    -11.24349981	    -42.93696509	      0.00000000	      0.00000000	      0.00000000	      0.00000000	      0.00000000
      0.15000000	     67.25655878	      1.36713523	     -3.90815093	      0.53168883	      0.96509645	     -0.29796300	      7.82052254	    -15.33572342	     -6.68862901	    -73.73708618	    -27.86646205	      0.00000000	      0.00000000	     16.04440655	     -2.53608265	     17.88544602	    -11.24971033	    -42.93837427	      0.00000000	      0.00000000	      0.00000000	      0.00000000	      0.00000000
      0.16000000	     67.23778097	      1.36301219	     -3.92295497	      0.53168362	      0.96507709	     -0.29794512	      7.84763841	    -15.31880142	     -6.65625365	    -73.72524397	    -28.01596099	      0.00000000	      0.00000000	     16.06198932	     -2.54429258	     17.88510551	    -11.25352348	    -42.94034518	      0.00000000	      0.00000000	      0.00000000	      0.00000000	      0.00000000
      0.17000000	     67.22931385	      1.36027210	     -3.92994797	      0.53168604	      0.96507434	     -0.29792247	      7.85055293	    -15.30724718	     -6.64357314	    -73.70879142	    -28.07345779	      0.00000000	      0.00000000	     16.06788252	     -2.54994391	     17.88745202	    -11.25457685	    -42.94328682	      0.00000000	      0.00000000	      0.00000000	      0.00000000	      0.00000000
      0.18000000	     67.23109129	      1.35763472	     -3.92698814	      0.53169217	      0.96507570	     -0.29791366	      7.83336803	    -15.29942386	     -6.64216328	    -73.68961285	    -28.05695482	      0.00000000	      0.00000000	     16.06332107	     -2.55394187	     17.89318600	    -11.25256253	    -42.94718180	      0.00000000	      0.00000000	      0.00000000	      0.00000000	      0.00000000
      0.19000000	     67.24091223	      1.35446398	     -3.91603629	      0.53169451	      0.96507678	     -0.29791649	      7.80207006	    -15.29289398	     -6.64514171	    -73.66989901	    -27.99107847	      0.00000000	      0.00000000	     16.05107465	     -2.55664533	     17.90187389	    -11.24744925	    -42.95163755	      0.00000000	      0.00000000	      0.00000000	      0.00000000	      0.00000000
      0.20000000	     67.25503625	      1.35086552	     -3.90159367	      0.53169003	      0.96507765	     -0.29792194	      7.76335030	    -15.28570963	     -6.64817390	    -73.65134687	    -27.90118184	      0.00000000	      0.00000000	     16.03448338	     -2.55858852	     17.91207762	    -11.23962063	    -42.95609110	      0.00000000	      0.00000000	      0.00000000	      0.00000000	      0.00000000
      0.21000000	     67.26946877	      1.34726692	     -3.88831072	      0.53168085	      0.96507836	     -0.29792805	      7.72367223	    -15.27713606	     -6.64914418	    -73.63476704	    -27.80904817	      0.00000000	      0.00000000	     16.01655150	     -2.56077670	     17.92182440	    -11.22976524	    -42.96003310	      0.00000000	      0.00000000	      0.00000000	      0.00000000	      0.00000000
      0.22000000	     67.28147647	      1.34379220	     -3.87908731	      0.53167045	      0.96507852	     -0.29793420	      7.68859136	    -15.26757621	     -6.64727245	    -73.62003793	    -27.73054923	      0.00000000	      0.00000000	     15.99946001	     -2.56433029	     17.92922352	    -11.21861088	    -42.96313479	      0.00000000	      0.00000000	      0.00000000	      0.00000000	      0.00000000
      0.23000000	     67.29029874	      1.34008345	     -3.87449766	      0.53166359	      0.96507818	     -0.29793565	      7.66189968	    -15.25791497	     -6.64235321	    -73.60640537	    -27.67505774	      0.00000000	      0.00000000	     15.98453949	     -2.56991287	     17.93299490	    -11.20669737	    -42.96526605	      0.00000000	      0.00000000	      0.00000000	      0.00000000	      0.00000000
      0.24000000	     67.29629394	      1.33569270	     -3.87347140	      0.53166250	      0.96507745	     -0.29793058	      7.64438799	    -15.24885315	     -6.63440895	    -73.59320607	    -27.64616939	      0.00000000	      0.00000000	     15.97244078	     -2.57747089	     17.93273049	    -11.19432285	    -42.96647759	      0.00000000	      0.00000000	      0.00000000	      0.00000000	      0.00000000
      0.25000000	     67.29987156	      1.33060470	     -3.87441313	      0.53166574	      0.96507519	     -0.29792618	      7.63360004	    -15.24069390	     -6.62390426	    -73.58026843	    -27.64313114	      0.00000000	      0.00000000	     15.96320620	     -2.58639179	     17.92884204	    -11.18166626	    -42.96698983	      0.00000000	      0.00000000	      0.00000000	      0.00000000	      0.00000000
      0.26000000	     67.30158023	      1.32529971	     -3.87596362	      0.53167047	      0.96507089	     -0.29793191	      7.62553336	    -15.23367552	     -6.61226800	    -73.56743054	    -27.66231021	      0.00000000	      0.00000000	     15.95616322	     -2.59582749	     17.92229317	    -11.16898848	    -42.96715913	      0.00000000	      0.00000000	      0.00000000	      0.00000000	      0.00000000
